<svg width="199" height="157" viewBox="0 0 199 157" fill="none" xmlns="http://www.w3.org/2000/svg">
<path d="M115.956 58.0629C103.722 58.1351 91.2984 57.5718 79.6775 54.3797C68.0567 51.1875 57.7789 45.1643 48.4355 38.13C42.3185 33.5512 36.7562 29.9113 28.8143 30.4601C21.0491 30.8639 13.6216 33.7305 7.63108 38.6355C-2.47149 47.3887 -0.938583 63.5662 3.09076 74.9482C9.16398 92.0934 27.6464 103.995 43.3404 111.752C61.4871 120.722 81.4148 125.936 101.401 128.926C118.92 131.555 141.417 133.476 156.586 122.152C170.528 111.766 174.353 88.0201 170.936 71.9871C170.105 67.2516 167.556 62.9787 163.768 59.9696C153.972 52.8919 139.373 57.6152 128.365 57.8607C124.351 57.9474 120.132 58.0485 115.956 58.0629Z" fill="#F2F2F2"/>
<path d="M56.3022 2V8.21099" stroke="#CFCFCF" stroke-width="2.85489" stroke-linecap="round" stroke-linejoin="round"/>
<path d="M53.1624 5.10291H59.44" stroke="#CFCFCF" stroke-width="2.85489" stroke-linecap="round" stroke-linejoin="round"/>
<path d="M175.398 125.802V132.013" stroke="#CFCFCF" stroke-width="2.85489" stroke-linecap="round" stroke-linejoin="round"/>
<path d="M172.262 128.905H178.54" stroke="#CFCFCF" stroke-width="2.85489" stroke-linecap="round" stroke-linejoin="round"/>
<path d="M8.87212 98.9789C9.66227 98.9789 10.3028 98.3452 10.3028 97.5634C10.3028 96.7816 9.66227 96.1479 8.87212 96.1479C8.08196 96.1479 7.44141 96.7816 7.44141 97.5634C7.44141 98.3452 8.08196 98.9789 8.87212 98.9789Z" fill="#CFCFCF"/>
<path d="M130.684 8.40912C131.474 8.40912 132.115 7.77537 132.115 6.99359C132.115 6.21182 131.474 5.57806 130.684 5.57806C129.894 5.57806 129.253 6.21182 129.253 6.99359C129.253 7.77537 129.894 8.40912 130.684 8.40912Z" fill="#CFCFCF"/>
<path d="M91.0339 157C120.625 157 144.613 155.526 144.613 153.707C144.613 151.888 120.625 150.413 91.0339 150.413C61.4433 150.413 37.4553 151.888 37.4553 153.707C37.4553 155.526 61.4433 157 91.0339 157Z" fill="#F2F2F2"/>
<path d="M49.76 18.8696H127.573C129.509 18.8696 131.366 19.6305 132.735 20.9849C134.104 22.3393 134.873 24.1763 134.873 26.0917V117.682C134.873 119.598 134.104 121.435 132.735 122.789C131.366 124.143 129.509 124.904 127.573 124.904H39.7888C37.8528 124.904 35.9962 124.143 34.6272 122.789C33.2583 121.435 32.4893 119.598 32.4893 117.682V36.1304L49.76 18.8696Z" fill="white" stroke="#DDDDDD" stroke-width="3.3587" stroke-linecap="round" stroke-linejoin="round"/>
<path d="M134.527 63.5005H54.29V125.784H134.527V63.5005Z" fill="#D2D2D2"/>
<path d="M32.4893 36.1304H46.6358C47.4657 36.1266 48.2603 35.7977 48.8458 35.2157C49.4313 34.6337 49.76 33.846 49.76 33.0249V18.8696L32.4893 36.1304Z" fill="white" stroke="#DDDDDD" stroke-width="3.3587" stroke-linecap="round" stroke-linejoin="round"/>
<path d="M134.132 43.6066H54.7719C51.6838 43.6066 49.1804 46.0834 49.1804 49.1387V65.9372C49.1804 68.9925 51.6838 71.4694 54.7719 71.4694H134.132C137.221 71.4694 139.724 68.9925 139.724 65.9372V49.1387C139.724 46.0834 137.221 43.6066 134.132 43.6066Z" fill="white" stroke="#DDDDDD" stroke-width="3.3587" stroke-linecap="round" stroke-linejoin="round"/>
<path d="M64.5948 62.4068C67.2878 62.4068 69.4709 60.2469 69.4709 57.5825C69.4709 54.9181 67.2878 52.7581 64.5948 52.7581C61.9019 52.7581 59.7188 54.9181 59.7188 57.5825C59.7188 60.2469 61.9019 62.4068 64.5948 62.4068Z" fill="#D2D2D2"/>
<path d="M79.9247 62.4068C82.6177 62.4068 84.8008 60.2469 84.8008 57.5824C84.8008 54.918 82.6177 52.7581 79.9247 52.7581C77.2317 52.7581 75.0486 54.918 75.0486 57.5824C75.0486 60.2469 77.2317 62.4068 79.9247 62.4068Z" fill="#D2D2D2"/>
<path d="M95.2381 62.4068C97.9311 62.4068 100.114 60.2469 100.114 57.5825C100.114 54.9181 97.9311 52.7581 95.2381 52.7581C92.5452 52.7581 90.3621 54.9181 90.3621 57.5825C90.3621 60.2469 92.5452 62.4068 95.2381 62.4068Z" fill="#D2D2D2"/>
<path d="M134.132 74.4903H54.7719C51.6838 74.4903 49.1804 76.9671 49.1804 80.0224V96.8209C49.1804 99.8762 51.6838 102.353 54.7719 102.353H134.132C137.221 102.353 139.724 99.8762 139.724 96.8209V80.0224C139.724 76.9671 137.221 74.4903 134.132 74.4903Z" fill="white" stroke="#DDDDDD" stroke-width="3.3587" stroke-linecap="round" stroke-linejoin="round"/>
<path d="M64.5948 93.3064C67.2878 93.3064 69.4709 91.1464 69.4709 88.482C69.4709 85.8176 67.2878 83.6577 64.5948 83.6577C61.9019 83.6577 59.7188 85.8176 59.7188 88.482C59.7188 91.1464 61.9019 93.3064 64.5948 93.3064Z" fill="#D2D2D2"/>
<path d="M79.9247 93.3063C82.6177 93.3063 84.8008 91.1463 84.8008 88.4819C84.8008 85.8175 82.6177 83.6576 79.9247 83.6576C77.2317 83.6576 75.0486 85.8175 75.0486 88.4819C75.0486 91.1463 77.2317 93.3063 79.9247 93.3063Z" fill="#D2D2D2"/>
<path d="M95.2381 93.3064C97.9311 93.3064 100.114 91.1464 100.114 88.482C100.114 85.8176 97.9311 83.6577 95.2381 83.6577C92.5452 83.6577 90.3621 85.8176 90.3621 88.482C90.3621 91.1464 92.5452 93.3064 95.2381 93.3064Z" fill="#D2D2D2"/>
<path d="M134.132 105.386H54.7719C51.6838 105.386 49.1804 107.863 49.1804 110.918V127.717C49.1804 130.772 51.6838 133.249 54.7719 133.249H134.132C137.221 133.249 139.724 130.772 139.724 127.717V110.918C139.724 107.863 137.221 105.386 134.132 105.386Z" fill="white" stroke="#DDDDDD" stroke-width="3.3587" stroke-linecap="round" stroke-linejoin="round"/>
<path d="M64.5948 124.178C67.2878 124.178 69.4709 122.018 69.4709 119.354C69.4709 116.69 67.2878 114.53 64.5948 114.53C61.9019 114.53 59.7188 116.69 59.7188 119.354C59.7188 122.018 61.9019 124.178 64.5948 124.178Z" fill="#D2D2D2"/>
<path d="M79.9247 124.178C82.6177 124.178 84.8008 122.018 84.8008 119.354C84.8008 116.69 82.6177 114.53 79.9247 114.53C77.2317 114.53 75.0486 116.69 75.0486 119.354C75.0486 122.018 77.2317 124.178 79.9247 124.178Z" fill="#D2D2D2"/>
<path d="M95.2381 124.178C97.9311 124.178 100.114 122.018 100.114 119.354C100.114 116.69 97.9311 114.53 95.2381 114.53C92.5452 114.53 90.3621 116.69 90.3621 119.354C90.3621 122.018 92.5452 124.178 95.2381 124.178Z" fill="#D2D2D2"/>
<path d="M141.315 78.8021C158.029 78.8021 171.579 65.3963 171.579 48.8594C171.579 32.3224 158.029 18.9166 141.315 18.9166C124.601 18.9166 111.051 32.3224 111.051 48.8594C111.051 65.3963 124.601 78.8021 141.315 78.8021Z" fill="white" stroke="#DDDDDD" stroke-width="3.3587" stroke-linecap="round" stroke-linejoin="round"/>
<path d="M162.802 70.5784L170.86 78.5516" stroke="#DDDDDD" stroke-width="3.3587" stroke-linecap="round" stroke-linejoin="round"/>
<path d="M169.96 74.6819L167.458 77.2713C166.333 78.4361 166.375 80.283 167.552 81.3965L189.291 101.957C190.468 103.071 192.335 103.029 193.46 101.865L195.962 99.2752C197.088 98.1104 197.046 96.2635 195.868 95.15L174.129 74.589C172.952 73.4755 171.085 73.5171 169.96 74.6819Z" fill="white" stroke="#DDDDDD" stroke-width="3.3587" stroke-linecap="round" stroke-linejoin="round"/>
</svg>
